<svg viewBox="0 0 1100 780" xmlns="http://www.w3.org/2000/svg" font-family="'Segoe UI', system-ui, sans-serif">
  <defs>
    <linearGradient id="bgGrad" x1="0%" y1="0%" x2="100%" y2="100%">
      <stop offset="0%" style="stop-color:#0f1117;stop-opacity:1" />
      <stop offset="100%" style="stop-color:#1a1d2e;stop-opacity:1" />
    </linearGradient>
    <linearGradient id="headerGrad" x1="0%" y1="0%" x2="100%" y2="0%">
      <stop offset="0%" style="stop-color:#1e3a5f;stop-opacity:1" />
      <stop offset="100%" style="stop-color:#1a2744;stop-opacity:1" />
    </linearGradient>
    <linearGradient id="stageGrad1" x1="0%" y1="0%" x2="0%" y2="100%">
      <stop offset="0%" style="stop-color:#1b3a6b;stop-opacity:1" />
      <stop offset="100%" style="stop-color:#112244;stop-opacity:1" />
    </linearGradient>
    <linearGradient id="stageGrad2" x1="0%" y1="0%" x2="0%" y2="100%">
      <stop offset="0%" style="stop-color:#1a4a3a;stop-opacity:1" />
      <stop offset="100%" style="stop-color:#0f2d23;stop-opacity:1" />
    </linearGradient>
    <linearGradient id="stageGrad3" x1="0%" y1="0%" x2="0%" y2="100%">
      <stop offset="0%" style="stop-color:#4a2a1a;stop-opacity:1" />
      <stop offset="100%" style="stop-color:#2d1a0f;stop-opacity:1" />
    </linearGradient>
    <linearGradient id="stageGrad4" x1="0%" y1="0%" x2="0%" y2="100%">
      <stop offset="0%" style="stop-color:#3a1a4a;stop-opacity:1" />
      <stop offset="100%" style="stop-color:#231030;stop-opacity:1" />
    </linearGradient>
    <linearGradient id="stageGrad5" x1="0%" y1="0%" x2="0%" y2="100%">
      <stop offset="0%" style="stop-color:#4a3a1a;stop-opacity:1" />
      <stop offset="100%" style="stop-color:#2d2410;stop-opacity:1" />
    </linearGradient>
    <linearGradient id="loopGrad" x1="0%" y1="0%" x2="0%" y2="100%">
      <stop offset="0%" style="stop-color:#1a3a4a;stop-opacity:1" />
      <stop offset="100%" style="stop-color:#0f2230;stop-opacity:1" />
    </linearGradient>
    <filter id="glow">
      <feGaussianBlur stdDeviation="2" result="coloredBlur"/>
      <feMerge><feMergeNode in="coloredBlur"/><feMergeNode in="SourceGraphic"/></feMerge>
    </filter>
    <filter id="softShadow">
      <feDropShadow dx="0" dy="2" stdDeviation="4" flood-color="#000" flood-opacity="0.5"/>
    </filter>
    <marker id="arrowBlue" markerWidth="8" markerHeight="8" refX="6" refY="3" orient="auto">
      <path d="M0,0 L0,6 L8,3 z" fill="#4a9eff"/>
    </marker>
    <marker id="arrowGreen" markerWidth="8" markerHeight="8" refX="6" refY="3" orient="auto">
      <path d="M0,0 L0,6 L8,3 z" fill="#4adf9a"/>
    </marker>
    <marker id="arrowOrange" markerWidth="8" markerHeight="8" refX="6" refY="3" orient="auto">
      <path d="M0,0 L0,6 L8,3 z" fill="#ff9a4a"/>
    </marker>
    <marker id="arrowPurple" markerWidth="8" markerHeight="8" refX="6" refY="3" orient="auto">
      <path d="M0,0 L0,6 L8,3 z" fill="#b06aff"/>
    </marker>
    <marker id="arrowCyan" markerWidth="8" markerHeight="8" refX="6" refY="3" orient="auto">
      <path d="M0,0 L0,6 L8,3 z" fill="#4adfd0"/>
    </marker>
  </defs>

  <!-- Background -->
  <rect width="1100" height="780" fill="url(#bgGrad)" rx="12"/>

  <!-- Subtle grid lines -->
  <g opacity="0.04" stroke="#ffffff" stroke-width="1">
    <line x1="0" y1="100" x2="1100" y2="100"/>
    <line x1="0" y1="200" x2="1100" y2="200"/>
    <line x1="0" y1="300" x2="1100" y2="300"/>
    <line x1="0" y1="400" x2="1100" y2="400"/>
    <line x1="0" y1="500" x2="1100" y2="500"/>
    <line x1="0" y1="600" x2="1100" y2="600"/>
    <line x1="0" y1="700" x2="1100" y2="700"/>
    <line x1="200" y1="0" x2="200" y2="780"/>
    <line x1="400" y1="0" x2="400" y2="780"/>
    <line x1="600" y1="0" x2="600" y2="780"/>
    <line x1="800" y1="0" x2="800" y2="780"/>
    <line x1="1000" y1="0" x2="1000" y2="780"/>
  </g>

  <!-- Header -->
  <rect x="30" y="18" width="1040" height="52" rx="8" fill="url(#headerGrad)" stroke="#2a5a9f" stroke-width="1" filter="url(#softShadow)"/>
  <text x="550" y="38" text-anchor="middle" fill="#4a9eff" font-size="11" font-weight="600" letter-spacing="3">PEARSON SPECTER LITT</text>
  <text x="550" y="57" text-anchor="middle" fill="#ffffff" font-size="17" font-weight="700" letter-spacing="1">Legal AI Document Intelligence System</text>

  <!-- ═══════════════════════════════════════════ -->
  <!-- INPUT LAYER -->
  <!-- ═══════════════════════════════════════════ -->
  <text x="55" y="100" fill="#6a8ab0" font-size="10" font-weight="600" letter-spacing="2">INPUT LAYER</text>

  <!-- Input box -->
  <rect x="30" y="108" width="195" height="130" rx="8" fill="url(#stageGrad1)" stroke="#2a5a9f" stroke-width="1.5" filter="url(#softShadow)"/>
  <rect x="30" y="108" width="195" height="28" rx="8" fill="#1e3a6b"/>
  <rect x="30" y="124" width="195" height="12" fill="#1e3a6b"/>
  <text x="127" y="126" text-anchor="middle" fill="#4a9eff" font-size="11" font-weight="700" letter-spacing="1">DOCUMENT INGESTION</text>

  <!-- Icons for doc types -->
  <g fill="#6a9adf" font-size="9.5">
    <text x="48" y="156">📄  Scanned PDFs / Low-res Images</text>
    <text x="48" y="174">✍️  Handwritten Notes</text>
    <text x="48" y="192">📋  Messy / Partially Illegible Files</text>
    <text x="48" y="210">📂  Inconsistently Formatted Docs</text>
    <text x="48" y="228">🔗  Multi-page Legal Documents</text>
  </g>

  <!-- ═══════════════════════════════════════════ -->
  <!-- STAGE 1: Document Processing -->
  <!-- ═══════════════════════════════════════════ -->
  <text x="258" y="100" fill="#6a8ab0" font-size="10" font-weight="600" letter-spacing="2">STAGE 1 — 25 pts</text>

  <rect x="248" y="108" width="195" height="195" rx="8" fill="url(#stageGrad1)" stroke="#2a6abf" stroke-width="1.5" filter="url(#softShadow)"/>
  <rect x="248" y="108" width="195" height="28" rx="8" fill="#1a3f80"/>
  <rect x="248" y="124" width="195" height="12" fill="#1a3f80"/>
  <text x="345" y="126" text-anchor="middle" fill="#4a9eff" font-size="11" font-weight="700" letter-spacing="1">DOCUMENT PROCESSING</text>
  <text x="345" y="140" text-anchor="middle" fill="#3a7acf" font-size="8.5">document_processor.py</text>

  <g fill="#8ab4e0" font-size="9">
    <text x="262" y="162">⚙  Native PDF text extraction (PyMuPDF)</text>
    <text x="262" y="180">🔍  Block-level fallback for columns/tables</text>
    <text x="262" y="198">👁  Claude Vision OCR for scanned pages</text>
    <text x="262" y="216">🧹  Text cleaning &amp; normalization</text>
    <text x="262" y="234">🏷  Structured field extraction:</text>
    <text x="272" y="250">  · Parties, Dates, Case Numbers</text>
    <text x="272" y="265">  · Amounts, Jurisdiction, Doc Type</text>
    <text x="262" y="282">📊  Confidence scoring per page</text>
  </g>

  <!-- OUTPUT label: Cleaned Text + Structured Fields -->
  <rect x="270" y="292" width="155" height="16" rx="4" fill="#0d2040" stroke="#2a5a9f" stroke-width="1"/>
  <text x="347" y="303" text-anchor="middle" fill="#4a9eff" font-size="8.5">Output: Cleaned Text + Structured Fields</text>

  <!-- ═══════════════════════════════════════════ -->
  <!-- STAGE 2: Retrieval -->
  <!-- ═══════════════════════════════════════════ -->
  <text x="468" y="100" fill="#6aaa80" font-size="10" font-weight="600" letter-spacing="2">STAGE 2 — 25 pts</text>

  <rect x="460" y="108" width="195" height="195" rx="8" fill="url(#stageGrad2)" stroke="#2aaf6a" stroke-width="1.5" filter="url(#softShadow)"/>
  <rect x="460" y="108" width="195" height="28" rx="8" fill="#154030"/>
  <rect x="460" y="124" width="195" height="12" fill="#154030"/>
  <text x="557" y="126" text-anchor="middle" fill="#4adf9a" font-size="11" font-weight="700" letter-spacing="1">GROUNDED RETRIEVAL</text>
  <text x="557" y="140" text-anchor="middle" fill="#3abf7a" font-size="8.5">retrieval_engine.py</text>

  <g fill="#8ae0b4" font-size="9">
    <text x="474" y="162">🧩  Overlapping chunk windowing</text>
    <text x="474" y="180">     (400 words, 80-word overlap)</text>
    <text x="474" y="198">🗄  ChromaDB vector store</text>
    <text x="474" y="216">🔢  Sentence-transformer embeddings</text>
    <text x="474" y="234">🎯  Cosine similarity semantic search</text>
    <text x="474" y="252">📎  Evidence citation tracking</text>
    <text x="474" y="270">🔍  Doc-scoped retrieval filtering</text>
    <text x="474" y="288">📋  Inspectable evidence blocks</text>
  </g>

  <rect x="482" y="292" width="155" height="16" rx="4" fill="#0a2015" stroke="#2aaf6a" stroke-width="1"/>
  <text x="559" y="303" text-anchor="middle" fill="#4adf9a" font-size="8.5">Output: Ranked Evidence Chunks + Citations</text>

  <!-- ═══════════════════════════════════════════ -->
  <!-- STAGE 3: Draft Generation -->
  <!-- ═══════════════════════════════════════════ -->
  <text x="678" y="100" fill="#aa8a6a" font-size="10" font-weight="600" letter-spacing="2">STAGE 3 — 10 pts</text>

  <rect x="670" y="108" width="195" height="195" rx="8" fill="url(#stageGrad3)" stroke="#bf6a2a" stroke-width="1.5" filter="url(#softShadow)"/>
  <rect x="670" y="108" width="195" height="28" rx="8" fill="#402015"/>
  <rect x="670" y="124" width="195" height="12" fill="#402015"/>
  <text x="767" y="126" text-anchor="middle" fill="#ff9a4a" font-size="11" font-weight="700" letter-spacing="1">DRAFT GENERATION</text>
  <text x="767" y="140" text-anchor="middle" fill="#cf7a3a" font-size="8.5">draft_generator.py</text>

  <g fill="#e0b48a" font-size="9">
    <text x="684" y="162">🤖  Claude claude-sonnet-4-20250514 generation</text>
    <text x="684" y="180">📌  Grounding enforcement (citations req.)</text>
    <text x="684" y="198">📝  5 draft types available:</text>
    <text x="694" y="214">  · Case Fact Summary</text>
    <text x="694" y="229">  · Internal Memo</text>
    <text x="694" y="244">  · Notice Summary</text>
    <text x="694" y="259">  · Document Checklist</text>
    <text x="694" y="274">  · Title Review Summary</text>
    <text x="684" y="291">🔒  Style rules injection from feedback</text>
  </g>

  <rect x="692" y="292" width="155" height="16" rx="4" fill="#200f05" stroke="#bf6a2a" stroke-width="1"/>
  <text x="769" y="303" text-anchor="middle" fill="#ff9a4a" font-size="8.5">Output: Structured Grounded Draft</text>

  <!-- ═══════════════════════════════════════════ -->
  <!-- STAGE 4: Operator Review -->
  <!-- ═══════════════════════════════════════════ -->
  <text x="888" y="100" fill="#9a8aaa" font-size="10" font-weight="600" letter-spacing="2">STAGE 4 — 25 pts</text>

  <rect x="880" y="108" width="190" height="195" rx="8" fill="url(#stageGrad4)" stroke="#8a3abf" stroke-width="1.5" filter="url(#softShadow)"/>
  <rect x="880" y="108" width="190" height="28" rx="8" fill="#2a1040"/>
  <rect x="880" y="124" width="190" height="12" fill="#2a1040"/>
  <text x="975" y="126" text-anchor="middle" fill="#b06aff" font-size="11" font-weight="700" letter-spacing="1">OPERATOR REVIEW</text>
  <text x="975" y="140" text-anchor="middle" fill="#904acf" font-size="8.5">edit_learner.py</text>

  <g fill="#c09ae0" font-size="9">
    <text x="894" y="162">👤  Human edits draft in UI</text>
    <text x="894" y="180">📝  Edit captured (original vs edited)</text>
    <text x="894" y="198">🔄  Diff computed (line-level)</text>
    <text x="894" y="216">🧠  Claude extracts reusable patterns</text>
    <text x="894" y="234">💾  Style rules stored persistently</text>
    <text x="894" y="252">📈  Frequency-weighted rule ranking</text>
    <text x="894" y="270">⚡  Rules injected into next drafts</text>
    <text x="894" y="288">🗂  Full edit history maintained</text>
  </g>

  <rect x="900" y="292" width="155" height="16" rx="4" fill="#150820" stroke="#8a3abf" stroke-width="1"/>
  <text x="977" y="303" text-anchor="middle" fill="#b06aff" font-size="8.5">Output: Style Rules → Future Drafts</text>

  <!-- ═══════════════════════════════════════════ -->
  <!-- ARROWS between stages -->
  <!-- ═══════════════════════════════════════════ -->

  <!-- Input → Stage 1 -->
  <line x1="226" y1="200" x2="245" y2="200" stroke="#4a9eff" stroke-width="2" marker-end="url(#arrowBlue)"/>

  <!-- Stage 1 → Stage 2 -->
  <line x1="444" y1="200" x2="457" y2="200" stroke="#4adf9a" stroke-width="2" marker-end="url(#arrowGreen)"/>

  <!-- Stage 2 → Stage 3 -->
  <line x1="656" y1="200" x2="667" y2="200" stroke="#ff9a4a" stroke-width="2" marker-end="url(#arrowOrange)"/>

  <!-- Stage 3 → Stage 4 -->
  <line x1="866" y1="200" x2="877" y2="200" stroke="#b06aff" stroke-width="2" marker-end="url(#arrowPurple)"/>

  <!-- ═══════════════════════════════════════════ -->
  <!-- FEEDBACK LOOP ARROW (bottom arc) -->
  <!-- ═══════════════════════════════════════════ -->
  <text x="55" y="340" fill="#6a8ab0" font-size="10" font-weight="600" letter-spacing="2">IMPROVEMENT LOOP</text>

  <rect x="30" y="350" width="1040" height="70" rx="8" fill="url(#loopGrad)" stroke="#2a7a9f" stroke-width="1.5"/>

  <!-- Feedback arrow (right to left along the loop bar) -->
  <line x1="975" y1="385" x2="800" y2="385" stroke="#b06aff" stroke-width="1.5" stroke-dasharray="6,3" marker-end="url(#arrowPurple)"/>
  <line x1="780" y1="385" x2="580" y2="385" stroke="#ff9a4a" stroke-width="1.5" stroke-dasharray="6,3" marker-end="url(#arrowOrange)"/>
  <line x1="560" y1="385" x2="360" y2="385" stroke="#4adf9a" stroke-width="1.5" stroke-dasharray="6,3" marker-end="url(#arrowGreen)"/>

  <!-- Loop labels -->
  <text x="870" y="370" text-anchor="middle" fill="#b06aff" font-size="8.5" font-weight="600">Style Rules Extracted</text>
  <text x="670" y="370" text-anchor="middle" fill="#ff9a4a" font-size="8.5" font-weight="600">Injected at Generation</text>
  <text x="460" y="370" text-anchor="middle" fill="#4adf9a" font-size="8.5" font-weight="600">Refines Retrieval Query</text>

  <!-- Loop connectors from stages down into loop -->
  <line x1="975" y1="308" x2="975" y2="350" stroke="#b06aff" stroke-width="1.5" stroke-dasharray="4,2"/>
  <line x1="767" y1="308" x2="767" y2="350" stroke="#ff9a4a" stroke-width="1.5" stroke-dasharray="4,2"/>
  <line x1="557" y1="308" x2="557" y2="350" stroke="#4adf9a" stroke-width="1.5" stroke-dasharray="4,2"/>

  <!-- Loop label bottom -->
  <text x="170" y="391" text-anchor="middle" fill="#4adfd0" font-size="9" font-weight="600">Continuous Improvement →</text>

  <!-- ═══════════════════════════════════════════ -->
  <!-- INFRASTRUCTURE ROW -->
  <!-- ═══════════════════════════════════════════ -->
  <text x="55" y="455" fill="#6a8ab0" font-size="10" font-weight="600" letter-spacing="2">INFRASTRUCTURE &amp; STORAGE</text>

  <!-- FastAPI -->
  <rect x="30" y="465" width="155" height="80" rx="7" fill="#141a2a" stroke="#2a4a7f" stroke-width="1.5"/>
  <text x="107" y="484" text-anchor="middle" fill="#4a9eff" font-size="10" font-weight="700">⚡ FastAPI Backend</text>
  <g fill="#7a9abf" font-size="8.5">
    <text x="44" y="500">REST API (CORS-enabled)</text>
    <text x="44" y="515">File upload endpoint</text>
    <text x="44" y="530">Async request handling</text>
    <text x="44" y="534"/>
  </g>
  <text x="44" y="540" fill="#3a7acf" font-size="8">api/main.py</text>

  <!-- ChromaDB -->
  <rect x="200" y="465" width="155" height="80" rx="7" fill="#141a2a" stroke="#2a4a7f" stroke-width="1.5"/>
  <text x="277" y="484" text-anchor="middle" fill="#4adf9a" font-size="10" font-weight="700">🗄 ChromaDB</text>
  <g fill="#7abf9a" font-size="8.5">
    <text x="214" y="500">Persistent vector store</text>
    <text x="214" y="515">Cosine similarity index</text>
    <text x="214" y="530">HNSW-based ANN search</text>
  </g>
  <text x="214" y="540" fill="#3abf7a" font-size="8">/tmp/chroma_legal</text>

  <!-- File Store -->
  <rect x="370" y="465" width="155" height="80" rx="7" fill="#141a2a" stroke="#2a4a7f" stroke-width="1.5"/>
  <text x="447" y="484" text-anchor="middle" fill="#ff9a4a" font-size="10" font-weight="700">📁 Document Store</text>
  <g fill="#bf9a7a" font-size="8.5">
    <text x="384" y="500">Processed doc metadata</text>
    <text x="384" y="515">Draft JSON storage</text>
    <text x="384" y="530">Raw PDF archive</text>
  </g>
  <text x="384" y="540" fill="#cf7a3a" font-size="8">storage/document_store.py</text>

  <!-- Style Rules -->
  <rect x="540" y="465" width="155" height="80" rx="7" fill="#141a2a" stroke="#2a4a7f" stroke-width="1.5"/>
  <text x="617" y="484" text-anchor="middle" fill="#b06aff" font-size="10" font-weight="700">📐 Style Rules DB</text>
  <g fill="#b09abf" font-size="8.5">
    <text x="554" y="500">Persistent JSON store</text>
    <text x="554" y="515">Per-type rule registry</text>
    <text x="554" y="530">Frequency-ranked rules</text>
  </g>
  <text x="554" y="540" fill="#904acf" font-size="8">legal_ai_style_rules.json</text>

  <!-- Claude API -->
  <rect x="710" y="465" width="155" height="80" rx="7" fill="#141a2a" stroke="#2a4a7f" stroke-width="1.5"/>
  <text x="787" y="484" text-anchor="middle" fill="#4adfd0" font-size="10" font-weight="700">🤖 Anthropic API</text>
  <g fill="#7abfba" font-size="8.5">
    <text x="724" y="500">claude-sonnet-4 (drafts)</text>
    <text x="724" y="515">Claude Vision (OCR)</text>
    <text x="724" y="530">Rule extraction model</text>
  </g>
  <text x="724" y="540" fill="#3abfb0" font-size="8">api.anthropic.com</text>

  <!-- PyMuPDF -->
  <rect x="880" y="465" width="190" height="80" rx="7" fill="#141a2a" stroke="#2a4a7f" stroke-width="1.5"/>
  <text x="975" y="484" text-anchor="middle" fill="#ffcf4a" font-size="10" font-weight="700">📄 PyMuPDF + OCR</text>
  <g fill="#bfb07a" font-size="8.5">
    <text x="894" y="500">Native PDF parsing</text>
    <text x="894" y="515">Page-to-image rendering</text>
    <text x="894" y="530">Block/span extraction</text>
  </g>
  <text x="894" y="540" fill="#cfaf3a" font-size="8">fitz / vision fallback</text>

  <!-- ═══════════════════════════════════════════ -->
  <!-- UI LAYER -->
  <!-- ═══════════════════════════════════════════ -->
  <text x="55" y="580" fill="#6a8ab0" font-size="10" font-weight="600" letter-spacing="2">FRONTEND — React + FastAPI</text>

  <rect x="30" y="590" width="1040" height="100" rx="8" fill="#0f1520" stroke="#2a4060" stroke-width="1.5"/>

  <!-- UI panels -->
  <rect x="46" y="604" width="180" height="72" rx="5" fill="#161e30" stroke="#2a5080" stroke-width="1"/>
  <text x="136" y="619" text-anchor="middle" fill="#4a9eff" font-size="9" font-weight="700">📤 Upload Panel</text>
  <text x="136" y="633" text-anchor="middle" fill="#6a8aaf" font-size="8">Drag &amp; drop PDFs</text>
  <text x="136" y="646" text-anchor="middle" fill="#6a8aaf" font-size="8">Processing status</text>
  <text x="136" y="659" text-anchor="middle" fill="#6a8aaf" font-size="8">Structured field preview</text>
  <text x="136" y="672" text-anchor="middle" fill="#6a8aaf" font-size="8">Confidence indicators</text>

  <rect x="242" y="604" width="180" height="72" rx="5" fill="#161e30" stroke="#2a5080" stroke-width="1"/>
  <text x="332" y="619" text-anchor="middle" fill="#4adf9a" font-size="9" font-weight="700">🗂 Documents Panel</text>
  <text x="332" y="633" text-anchor="middle" fill="#6aaf8a" font-size="8">Indexed document list</text>
  <text x="332" y="646" text-anchor="middle" fill="#6aaf8a" font-size="8">Page / word count</text>
  <text x="332" y="659" text-anchor="middle" fill="#6aaf8a" font-size="8">Delete &amp; re-index</text>
  <text x="332" y="672" text-anchor="middle" fill="#6aaf8a" font-size="8">Doc type badges</text>

  <rect x="438" y="604" width="180" height="72" rx="5" fill="#161e30" stroke="#2a5080" stroke-width="1"/>
  <text x="528" y="619" text-anchor="middle" fill="#ff9a4a" font-size="9" font-weight="700">✍️ Draft Generator</text>
  <text x="528" y="633" text-anchor="middle" fill="#af8a6a" font-size="8">Select draft type</text>
  <text x="528" y="646" text-anchor="middle" fill="#af8a6a" font-size="8">Multi-doc selection</text>
  <text x="528" y="659" text-anchor="middle" fill="#af8a6a" font-size="8">Custom instructions</text>
  <text x="528" y="672" text-anchor="middle" fill="#af8a6a" font-size="8">Evidence inspector</text>

  <rect x="634" y="604" width="180" height="72" rx="5" fill="#161e30" stroke="#2a5080" stroke-width="1"/>
  <text x="724" y="619" text-anchor="middle" fill="#b06aff" font-size="9" font-weight="700">📝 Edit &amp; Learn Panel</text>
  <text x="724" y="633" text-anchor="middle" fill="#9a7abf" font-size="8">Inline draft editor</text>
  <text x="724" y="646" text-anchor="middle" fill="#9a7abf" font-size="8">Submit edited draft</text>
  <text x="724" y="659" text-anchor="middle" fill="#9a7abf" font-size="8">Operator note field</text>
  <text x="724" y="672" text-anchor="middle" fill="#9a7abf" font-size="8">Extracted rules view</text>

  <rect x="830" y="604" width="226" height="72" rx="5" fill="#161e30" stroke="#2a5080" stroke-width="1"/>
  <text x="943" y="619" text-anchor="middle" fill="#4adfd0" font-size="9" font-weight="700">📊 Style Rules Dashboard</text>
  <text x="943" y="633" text-anchor="middle" fill="#6aafaa" font-size="8">Rules per draft type</text>
  <text x="943" y="646" text-anchor="middle" fill="#6aafaa" font-size="8">Frequency &amp; history</text>
  <text x="943" y="659" text-anchor="middle" fill="#6aafaa" font-size="8">Edit audit trail</text>
  <text x="943" y="672" text-anchor="middle" fill="#6aafaa" font-size="8">System health overview</text>

  <!-- ═══════════════════════════════════════════ -->
  <!-- RUBRIC SCORE BADGES -->
  <!-- ═══════════════════════════════════════════ -->
  <text x="55" y="718" fill="#6a8ab0" font-size="10" font-weight="600" letter-spacing="2">EVALUATION RUBRIC</text>

  <rect x="30" y="726" width="195" height="40" rx="6" fill="#1a2a1a" stroke="#3a8a3a" stroke-width="1"/>
  <text x="127" y="742" text-anchor="middle" fill="#4adf9a" font-size="10" font-weight="700">Document Processing</text>
  <text x="127" y="758" text-anchor="middle" fill="#6abf6a" font-size="9">OCR · Extraction · Structured Output · 25 pts</text>

  <rect x="240" y="726" width="195" height="40" rx="6" fill="#1a2a1a" stroke="#3a8a3a" stroke-width="1"/>
  <text x="337" y="742" text-anchor="middle" fill="#4adf9a" font-size="10" font-weight="700">Retrieval &amp; Grounding</text>
  <text x="337" y="758" text-anchor="middle" fill="#6abf6a" font-size="9">Relevance · Citations · Evidence · 25 pts</text>

  <rect x="450" y="726" width="175" height="40" rx="6" fill="#2a1a0a" stroke="#8a4a0a" stroke-width="1"/>
  <text x="537" y="742" text-anchor="middle" fill="#ff9a4a" font-size="10" font-weight="700">Draft Quality</text>
  <text x="537" y="758" text-anchor="middle" fill="#cf7a3a" font-size="9">Clarity · Grounding · Structure · 10 pts</text>

  <rect x="640" y="726" width="185" height="40" rx="6" fill="#1a0a2a" stroke="#6a2a9a" stroke-width="1"/>
  <text x="732" y="742" text-anchor="middle" fill="#b06aff" font-size="10" font-weight="700">Improvement from Edits</text>
  <text x="732" y="758" text-anchor="middle" fill="#906abf" font-size="9">Capture · Learn · Apply · 25 pts</text>

  <rect x="840" y="726" width="110" height="40" rx="6" fill="#1a1a0a" stroke="#6a6a0a" stroke-width="1"/>
  <text x="895" y="742" text-anchor="middle" fill="#ffdf4a" font-size="10" font-weight="700">Code Quality</text>
  <text x="895" y="758" text-anchor="middle" fill="#bfaf3a" font-size="9">Design · 10 pts</text>

  <rect x="965" y="726" width="105" height="40" rx="6" fill="#1a1a0a" stroke="#6a6a0a" stroke-width="1"/>
  <text x="1017" y="742" text-anchor="middle" fill="#ffdf4a" font-size="10" font-weight="700">Docs &amp; Clarity</text>
  <text x="1017" y="758" text-anchor="middle" fill="#bfaf3a" font-size="9">README · 5 pts</text>

  <!-- Total score badge -->
  <rect x="978" y="456" width="92" height="30" rx="6" fill="#1a1a0f" stroke="#cfaf2a" stroke-width="1.5"/>
  <text x="1024" y="468" text-anchor="middle" fill="#ffdf4a" font-size="8" font-weight="600">TOTAL RUBRIC</text>
  <text x="1024" y="481" text-anchor="middle" fill="#ffdf4a" font-size="12" font-weight="700">100 pts</text>
</svg>
